<?xml version="1.0" encoding="UTF-8"?>
<svg width="77px" height="71px" viewBox="0 0 77 71" version="1.1" xmlns="http://www.w3.org/2000/svg" xmlns:xlink="http://www.w3.org/1999/xlink">
    <title>icons8-installing_updates</title>
    <g id="STARTSEITE" stroke="none" stroke-width="1" fill="none" fill-rule="evenodd">
        <g id="Startseite_XL" transform="translate(-931.000000, -7848.000000)" fill="#A9EB5D" fill-rule="nonzero">
            <g id="icons8-user_groups" transform="translate(931.865343, 7848.883460)">
                <path d="M25.8697843,0 C20.8468567,0 16.7393495,4.10750717 16.7393495,9.13043478 C16.7393495,12.1501359 18.2254237,14.8369565 20.496143,16.5013587 C19.2775632,17.1136213 18.16598,17.904212 17.214893,18.8790761 C16.1092552,18.4867535 14.9322843,18.2608696 13.6958713,18.2608696 C7.82885324,18.2608696 3.04369737,23.0460254 3.04369737,28.9130435 C3.04369737,32.6401159 4.97559237,35.951087 7.89424085,37.8532609 C3.24580411,40.0526502 0.000107502609,44.7605307 0.000107502609,50.2173913 L0.000107502609,57.0652174 C-0.00572518433,57.5526502 0.226103022,58.0103604 0.618425631,58.3016304 C0.618425631,58.3016304 1.69434237,59.0625 3.75701259,59.6807065 C5.8196828,60.298913 9.00582411,60.8695652 13.6958713,60.8695652 C18.3859185,60.8695652 21.5720598,60.298913 23.63473,59.6807065 C23.9022228,59.6034311 24.1162174,59.5261557 24.3480452,59.4429348 L24.3480452,66.1956522 C24.3421013,66.683085 24.5739291,67.1407952 24.9662517,67.4320652 C24.9662517,67.4320652 26.0421685,68.1929348 28.1048387,68.8111413 C30.1675089,69.4293478 33.3536502,70 38.0436974,70 C42.7337445,70 45.9198858,69.4293478 47.9825561,68.8111413 C50.0452263,68.1929348 51.121143,67.4320652 51.121143,67.4320652 C51.5134672,67.1407952 51.7452935,66.683085 51.7393495,66.1956522 L51.7393495,59.4429348 C51.9711774,59.5261557 52.1851719,59.6034311 52.4526648,59.6807065 C54.515335,60.298913 57.7014763,60.8695652 62.3915235,60.8695652 C67.0815706,60.8695652 70.2677119,60.298913 72.3303822,59.6807065 C74.3930524,59.0625 75.4689691,58.3016304 75.4689691,58.3016304 C75.8612932,58.0103604 76.0931195,57.5526502 76.0872872,57.0652174 L76.0872872,50.2173913 C76.0872872,44.7605307 72.8415922,40.0526502 68.1931539,37.8532609 C71.1118024,35.951087 73.0436974,32.6401159 73.0436974,28.9130435 C73.0436974,23.0460254 68.2585415,18.2608696 62.3915235,18.2608696 C61.0659456,18.2608696 59.8057554,18.5283624 58.63473,18.9741848 C57.6776991,17.9695996 56.5482826,17.1314546 55.3059256,16.5013587 C57.5766465,14.8369565 59.0627191,12.1501359 59.0627191,9.13043478 C59.0627191,4.10750717 54.9552119,0 49.9322843,0 C44.9093567,0 40.8018495,4.10750717 40.8018495,9.13043478 C40.8018495,12.1501359 42.2879237,14.8369565 44.558643,16.5013587 C41.0633985,18.2252046 38.507353,21.5421196 37.9010343,25.5366848 C37.2947172,21.5361757 34.7446141,18.2192591 31.2434256,16.5013587 C33.5141465,14.8369565 35.0002191,12.1501359 35.0002191,9.13043478 C35.0002191,4.10750717 30.8927119,0 25.8697843,0 Z M25.8697843,3.04347826 C29.2520869,3.04347826 31.9567408,5.74813217 31.9567408,9.13043478 C31.9567408,12.5127374 29.2520869,15.2173913 25.8697843,15.2173913 C22.4874817,15.2173913 19.7828278,12.5127374 19.7828278,9.13043478 C19.7828278,5.74813217 22.4874817,3.04347826 25.8697843,3.04347826 Z M49.9322843,3.04347826 C53.3145869,3.04347826 56.0192408,5.74813217 56.0192408,9.13043478 C56.0192408,12.5127374 53.3145869,15.2173913 49.9322843,15.2173913 C46.5499817,15.2173913 43.8453278,12.5127374 43.8453278,9.13043478 C43.8453278,5.74813217 46.5499817,3.04347826 49.9322843,3.04347826 Z M25.8697843,18.2608696 C30.99971,18.2608696 35.0002191,22.2613787 35.0002191,27.3913043 L35.0002191,27.8668478 C30.6252191,29.1924257 27.3915235,33.246433 27.3915235,38.0434783 C27.3915235,41.7705507 29.3234185,45.0815217 32.2420669,46.9836957 C30.3339491,47.8872283 28.699268,49.2128061 27.3915235,50.8355978 L27.3915235,50.2173913 C27.3915235,44.7605307 24.14594,40.0526502 19.4975017,37.8532609 C22.4161502,35.951087 24.3480452,32.6401159 24.3480452,28.9130435 C24.3480452,25.4415761 22.6539219,22.3505435 20.0681539,20.4008152 C21.6493367,19.0514602 23.6109528,18.2608696 25.8697843,18.2608696 Z M49.9322843,18.2608696 C52.2565035,18.2608696 54.2775632,19.0752374 55.8765778,20.4959239 C53.3680867,22.4456522 51.7393495,25.5069637 51.7393495,28.9130435 C51.7393495,32.6401159 53.6712445,35.951087 56.589893,37.8532609 C51.9414563,40.0526502 48.6958713,44.7605307 48.6958713,50.2173913 L48.6958713,50.8355978 C47.3881267,49.2128061 45.7534456,47.8872283 43.8453278,46.9836957 C46.7639763,45.0815217 48.6958713,41.7705507 48.6958713,38.0434783 C48.6958713,33.1394365 45.3314019,28.9962643 40.8018495,27.7717391 L40.8018495,27.3913043 C40.8018495,22.2613787 44.8023587,18.2608696 49.9322843,18.2608696 Z M13.6958713,21.3043478 C14.8787861,21.3043478 15.97848,21.5896739 16.9771213,22.0652174 C19.5331682,23.2897426 21.3045669,25.8755091 21.3045669,28.9130435 C21.3045669,33.1334926 17.9163204,36.5217391 13.6958713,36.5217391 C9.47542367,36.5217391 6.08717563,33.1334926 6.08717563,28.9130435 C6.08717563,24.6925959 9.47542367,21.3043478 13.6958713,21.3043478 Z M62.3915235,21.3043478 C66.6119726,21.3043478 70.0002191,24.6925959 70.0002191,28.9130435 C70.0002191,33.1334926 66.6119726,36.5217391 62.3915235,36.5217391 C58.1710758,36.5217391 54.7828278,33.1334926 54.7828278,28.9130435 C54.7828278,26.101393 56.2867337,23.6701774 58.5396213,22.3505435 C58.5515106,22.3445996 58.5752878,22.3564874 58.5871756,22.3505435 C58.8130595,22.3029891 59.0211087,22.2078804 59.2053822,22.0652174 C59.2588804,22.0414402 59.2945469,21.9938859 59.3480452,21.9701087 C59.3777663,21.9582209 59.4134328,21.9403876 59.4431539,21.9225543 C60.3526304,21.5361757 61.3393839,21.3043478 62.3915235,21.3043478 Z M38.0436974,30.4347826 C42.2641465,30.4347826 45.652393,33.8230307 45.652393,38.0434783 C45.652393,42.2639274 42.2641465,45.6521739 38.0436974,45.6521739 C33.8232498,45.6521739 30.4350017,42.2639274 30.4350017,38.0434783 C30.4350017,33.8230307 33.8232498,30.4347826 38.0436974,30.4347826 Z M13.6958713,39.5652174 C19.5628893,39.5652174 24.3480452,44.3503733 24.3480452,50.2173913 L24.3480452,56.0665761 C24.1221628,56.2032952 24.032998,56.3578461 22.7787517,56.732337 C21.0370741,57.2554348 18.1362589,57.826087 13.6958713,57.826087 C9.25548367,57.826087 6.35466846,57.2554348 4.61299085,56.732337 C3.35874454,56.3578461 3.26958128,56.2032952 3.04369737,56.0665761 L3.04369737,50.2173913 C3.04369737,44.3503733 7.82885324,39.5652174 13.6958713,39.5652174 Z M62.3915235,39.5652174 C68.2585415,39.5652174 73.0436974,44.3503733 73.0436974,50.2173913 L73.0436974,56.0665761 C72.817815,56.2032952 72.7286502,56.3578461 71.4744039,56.732337 C69.7327263,57.2554348 66.8319111,57.826087 62.3915235,57.826087 C57.9511358,57.826087 55.0503206,57.2554348 53.308643,56.732337 C52.0543967,56.3578461 51.9652335,56.2032952 51.7393495,56.0665761 L51.7393495,50.2173913 C51.7393495,44.3503733 56.5245054,39.5652174 62.3915235,39.5652174 Z M38.0436974,48.6956522 C43.9107154,48.6956522 48.6958713,53.480808 48.6958713,59.3478261 L48.6958713,65.1970109 C48.4699889,65.33373 48.3808241,65.4882809 47.1265778,65.8627717 C45.3849002,66.3858696 42.484085,66.9565217 38.0436974,66.9565217 C33.6033098,66.9565217 30.7024945,66.3858696 28.9608169,65.8627717 C27.7065706,65.4882809 27.6174074,65.33373 27.3915235,65.1970109 L27.3915235,59.3478261 C27.3915235,53.480808 32.1766793,48.6956522 38.0436974,48.6956522 Z" id="Shape"></path>
            </g>
        </g>
    </g>
</svg>