<?xml version="1.0" encoding="UTF-8"?>
<svg width="71px" height="71px" viewBox="0 0 71 71" version="1.1" xmlns="http://www.w3.org/2000/svg" xmlns:xlink="http://www.w3.org/1999/xlink">
    <title>Shape</title>
    <g id="STARTSEITE" stroke="none" stroke-width="1" fill="none" fill-rule="evenodd">
        <g id="Startseite_XL" transform="translate(-152.000000, -7898.000000)" fill="#A9EB5D" fill-rule="nonzero">
            <g id="Footer-und-Abbinder" transform="translate(0.000000, 6844.461666)">
                <g id="Kleine-Absprünge" transform="translate(0.021658, 696.110634)">
                    <g id="Group-11" transform="translate(152.000000, 358.311160)">
                        <g id="Group-4" transform="translate(0.843685, 0.000000)">
                            <path d="M32.8887752,4.87758243e-05 C32.1514764,-0.00584651172 31.51526,0.523281593 31.3844482,1.24860455 L30.5520141,5.80267592 C29.8384991,6.03454159 29.148768,6.31396938 28.4709295,6.64690415 L24.7309207,3.94775359 C24.1303793,3.51374971 23.2979452,3.57320159 22.7747009,4.10233121 L19.5222615,7.30088242 C18.9990171,7.82406564 18.9217201,8.64451282 19.3438835,9.25092897 L21.9719962,13.0558979 C21.6271314,13.7277123 21.3357798,14.4173629 21.1038871,15.1248497 L16.5433368,15.8620624 C15.8119836,15.9750228 15.2709026,16.60522 15.2649555,17.354324 L15.2351765,21.9202867 C15.2292805,22.6574994 15.7584704,23.293643 16.483878,23.4244381 L21.0563194,24.256775 C21.282265,24.9642618 21.567671,25.6479675 21.9006447,26.319782 L19.1833422,30.0771887 C18.7492877,30.67766 18.8087465,31.509997 19.3319908,32.0391251 L22.5428082,35.2852399 C23.0601069,35.8084231 23.8806499,35.8857112 24.4871368,35.4635971 L28.3401177,32.8120101 C29.006065,33.1508898 29.6898505,33.4303176 30.3914728,33.6621832 L31.1763393,38.275708 C31.3012055,39.0069743 31.9255308,39.5420488 32.6687751,39.5479937 L37.2293254,39.5718233 C37.9785153,39.5777197 38.6147332,39.0367018 38.739598,38.305434 L39.5185189,33.6978541 C40.2141956,33.4719348 40.8920355,33.1984519 41.5520373,32.8655171 L45.3752872,35.5825023 C45.9817757,36.0105613 46.8023171,35.9392182 47.3255614,35.4219814 L50.5780009,32.2174837 C51.1071908,31.6943005 51.1785423,30.8619636 50.7444877,30.249601 L48.0331308,26.4446321 C48.3720501,25.7847075 48.657456,25.112893 48.8893488,24.4232424 L53.5212505,23.6384676 C54.2466566,23.5136174 54.7817936,22.8834187 54.7877392,22.1402611 L54.8115721,17.5802433 C54.8174686,16.8370857 54.2823331,16.2009421 53.5450343,16.0760919 L48.9547547,15.297262 C48.7288075,14.5957216 48.4493486,13.9120159 48.1223206,13.2402014 L50.8217848,9.42928765 C51.2558409,8.82881486 51.1904349,8.0083692 50.6671906,7.4792411 L47.4563733,4.23312626 C46.933129,3.70994304 46.1006948,3.63265499 45.4942063,4.06665887 L41.7244697,6.74202838 C41.0585224,6.40314719 40.3806824,6.11777453 39.6850057,5.88591038 L38.9477069,1.30805643 C38.8287877,0.570843705 38.1985169,0.0298243106 37.4493254,0.0238794272 L32.8887752,4.87758243e-05 Z M34.1493183,3.05001836 L36.1471602,3.06190965 L36.807162,7.17603226 C36.9022973,7.77650353 37.3482445,8.25806953 37.9309477,8.40670226 C39.0487878,8.69207493 40.1250073,9.14985987 41.1358195,9.76222243 C41.6531182,10.0832659 42.3131199,10.0594849 42.8066333,9.70871391 L46.2017757,7.30088242 L47.6050218,8.71585599 L45.1612327,12.140328 C44.8163679,12.6337837 44.7866385,13.2818186 45.0958283,13.7990555 C45.6963697,14.815696 46.1363698,15.8977348 46.397992,17.009498 C46.540695,17.6040244 47.0223187,18.0558644 47.6288057,18.1628799 L51.7612469,18.8584754 L51.7493542,20.8501392 L47.5752924,21.5516796 C46.9806966,21.6527502 46.4990744,22.0986438 46.3504243,22.6812805 C46.0709654,23.7870988 45.6250182,24.8572463 45.0125841,25.8560506 C44.6974487,26.3792338 44.7212326,27.0391585 45.07799,27.5326158 L47.5098865,30.9630327 L46.1006948,32.3601701 L42.6460936,29.9107214 C42.1525787,29.5599504 41.5044696,29.5361693 40.9871709,29.8453231 C39.9763572,30.4457943 38.9060848,30.8738533 37.7941918,31.1473362 C37.199596,31.2900226 36.7536487,31.7715886 36.6525678,32.3720598 L35.950944,36.5218548 L33.9649948,36.5040186 L33.263371,32.3423339 C33.16229,31.7478075 32.7163428,31.2662415 32.121747,31.1235552 C31.0217451,30.8500723 29.93958,30.3982322 28.9287679,29.7918161 C28.4174147,29.4826624 27.7693057,29.5004985 27.2757908,29.8453231 L23.8092984,32.2353199 L22.4060523,30.8144015 L24.8498399,27.4374916 C25.2065974,26.9440343 25.2363283,26.2841096 24.9211914,25.7609264 C24.32065,24.7442874 23.8806499,23.6622486 23.607135,22.544539 C23.464432,21.9619039 22.994701,21.5160087 22.4001052,21.4030484 L18.2855022,20.6598907 L18.3033404,18.6622821 L22.4001052,18.0023574 C23.0006481,17.9072332 23.4882159,17.461338 23.6368644,16.872758 C23.9222704,15.749102 24.3682177,14.6670648 24.9865973,13.6563691 C25.3017327,13.1450772 25.283896,12.4910974 24.9390296,11.9976417 L22.5784847,8.57316965 L23.9936219,7.17008738 L27.359035,9.59575504 C27.8466028,9.95247087 28.5006589,9.98219681 29.0239032,9.67898797 C30.046608,9.06662541 31.1347187,8.63262153 32.2585044,8.35914015 C32.8471546,8.2223987 33.2931004,7.74677759 33.4001284,7.15819609 L34.1493183,3.05001836 Z M35.0055363,12.2293631 C33.0493165,12.217616 31.0871511,12.9488839 29.5947152,14.4292542 C26.6098435,17.3781051 26.5860597,22.2353853 29.5352549,25.2258534 C32.4844501,28.2103751 37.3482445,28.2341562 40.3331147,25.2853053 C43.3179864,22.3364544 43.3417703,17.4732293 40.3925751,14.4887061 C38.9179775,12.996446 36.9617576,12.2413971 35.0055363,12.2293631 Z M34.9936451,15.2555876 C36.1649985,15.2615911 37.3304063,15.7193761 38.2282463,16.6290011 C40.0239249,18.4423077 40.0060882,21.3257603 38.1925698,23.1152844 C36.379053,24.9107548 33.4952637,24.8988635 31.6995836,23.0855584 C29.903905,21.2663069 29.9217433,18.3828543 31.7352601,16.5933303 C32.6449913,15.695595 33.8163447,15.2496999 34.9936451,15.2555876 Z M18.9217201,39.5717748 C14.9498201,39.5717748 13.118465,40.523017 11.1444069,41.2840108 C11.1444069,41.2899557 11.1444069,41.2899557 11.1444069,41.2899557 C7.35683199,42.7643811 0.875736919,45.8202475 0.875736919,45.8202475 C0.114654284,46.1769633 -0.212372268,47.0865883 0.144385216,47.8475821 C0.507088279,48.6085759 1.41681948,48.9355658 2.17790212,48.5788499 C2.17790212,48.5788499 8.70061775,45.5051489 12.2444088,44.1258477 C14.4325213,43.2756746 15.3838746,42.6157499 18.9217201,42.6157499 C26.7287626,42.6157499 26.4136272,46.0045511 29.7076888,47.9427063 C29.7552564,47.9724323 29.8087697,48.0021597 29.8622829,48.0199944 C33.9471565,49.8511357 38.3352728,50.2256877 41.8731183,50.2256877 C43.4369056,50.2256877 44.4239339,50.5883484 44.9590709,50.9926263 C45.4882608,51.4028507 45.6785314,51.8249633 45.6785314,52.508669 C45.6785314,53.31128 45.4763696,53.6917769 44.9471782,54.0782187 C44.4239339,54.4587155 43.4131218,54.7916503 41.8731183,54.7916503 L33.8817506,54.7916503 C30.5282302,54.7916503 24.7547046,53.3172249 24.7547046,53.3172249 C24.2314603,53.1745385 23.6665954,53.3291162 23.280107,53.7155579 C22.8936201,54.1019997 22.7449715,54.6668002 22.8876745,55.1899834 C23.0363231,55.7191115 23.4525409,56.1293343 23.9817308,56.2660758 C23.9817308,56.2660758 29.7076888,57.8356254 33.8817506,57.8356254 L41.8731183,57.8356254 C43.4250129,57.8356254 44.7747458,57.5799787 45.9044786,57.0211247 C46.0531272,56.9795074 46.1958302,56.9141092 46.3206949,56.8249313 L60.7574811,47.3541248 C62.9277554,46.0996753 64.4083001,45.7489043 65.2764093,45.7607941 C66.1445199,45.7786303 66.441817,46.0402219 66.7034392,46.3731567 C67.0899261,46.8725588 67.1137099,47.0628073 66.8639804,47.6394975 C66.6083039,48.2221341 65.8650595,49.1198693 64.5272193,50.0473305 C64.5272193,50.0473305 64.5272193,50.0473305 64.5212722,50.0473305 C62.8682966,51.2007109 44.3823133,63.2458163 42.247714,64.4586502 C40.636359,65.37422 39.3579776,66.3373535 37.9012183,66.7475764 C36.4444589,67.1518543 34.7260774,67.1518543 31.8839087,65.7963342 C29.9871477,64.8867092 21.9125374,60.7488055 19.2963158,59.4230113 C17.8395565,58.6857985 16.5968501,58.2696293 15.3303614,58.3409725 C14.0579271,58.4123157 12.9817076,58.953335 11.8698145,59.6548769 C11.8638674,59.6548769 11.8579219,59.6608218 11.8579219,59.6667667 L8.08818521,62.0745982 C7.61250856,62.3599709 7.33304815,62.8831541 7.35088641,63.4360648 C7.36872314,63.9889739 7.68980564,64.4883761 8.18332054,64.7380764 C8.68278102,64.9877783 9.27142973,64.9521059 9.72926964,64.6370073 L13.481168,62.2351207 C14.4503596,61.6287046 14.9973877,61.4087286 15.4968482,61.3790027 C15.9963087,61.3492768 16.6800943,61.5097993 17.9227991,62.1399965 C20.5152368,63.4538994 28.4649824,67.5323512 30.5757979,68.5371004 C33.8876962,70.1244863 36.5693236,70.2731175 38.7158141,69.6785911 C40.8623061,69.0781198 42.390417,67.8771758 43.752041,67.1042922 C46.6893451,65.4336734 64.1407309,54.0187668 66.2634391,52.5443413 C67.8747926,51.4206853 69.0580386,50.2494687 69.65858,48.8463864 C70.2591229,47.4433042 70.0629051,45.7310682 69.1056063,44.5063446 C69.1056063,44.5063446 69.1056063,44.5063446 69.1056063,44.5003982 C68.3504692,43.5372662 67.012629,42.7524913 65.3299225,42.716819 C64.3726236,42.6989843 63.3082967,42.9189587 62.1250522,43.3529626 C61.9050506,43.0616451 61.572077,42.6811482 61.1142386,42.3482134 C60.2282912,41.6882887 58.8190995,41.0937623 56.9045003,41.0937623 C55.9234176,41.0937623 55.1207129,41.3196831 54.4785494,41.5872196 C53.5628726,40.7132654 51.9396249,39.6015007 49.5790799,39.6015007 C47.6644822,39.6015007 45.8688021,40.2435892 44.6201516,40.9808019 C44.3882589,41.1175434 43.8293381,41.4683143 42.8779848,42.0628407 C41.9266315,42.6573671 40.6839266,43.4243058 39.45906,44.1912444 C37.5028387,45.4100247 36.2898632,46.1710185 35.5882409,46.6109672 C34.0958051,46.3137048 32.6033692,45.8915907 31.1941775,45.2732832 C29.9930948,44.5003982 27.6801159,39.5717748 18.9217201,39.5717748 Z M49.5790799,42.6454758 C50.5423259,42.6454758 51.232057,42.8892328 51.7196248,43.1746055 L44.6796105,47.5384284 C43.8412308,47.3006178 42.9017686,47.1817126 41.8731183,47.1817126 C41.4331181,47.1817126 40.9514944,47.1519866 40.493656,47.1341504 C40.779062,46.9557933 40.779062,46.9557933 41.0704135,46.7774346 C42.2952817,46.0104959 43.5320409,45.2376109 44.4893398,44.6430845 C45.4406931,44.0545045 46.219614,43.572937 46.1661007,43.6026645 C46.8855613,43.1746055 48.4493486,42.6454758 49.5790799,42.6454758 Z M56.9045003,44.1377374 C58.1412596,44.1377374 58.8072069,44.4528361 59.211532,44.7322638 C59.1877482,44.7441551 59.1699099,44.7560449 59.1461261,44.7738811 L48.6277266,51.6703872 C48.4850236,50.8202141 48.1342117,50.0057133 47.5752924,49.3279524 L54.9304422,44.7679362 L54.9363878,44.7560449 C54.9958481,44.726319 56.2682824,44.1377374 56.9045003,44.1377374 Z" id="Shape"></path>
                        </g>
                    </g>
                </g>
            </g>
        </g>
    </g>
</svg>