<?xml version="1.0" encoding="UTF-8"?>
<svg width="51px" height="53px" viewBox="0 0 51 53" version="1.1" xmlns="http://www.w3.org/2000/svg" xmlns:xlink="http://www.w3.org/1999/xlink">
    <title>icons8-work</title>
    <g id="Symbols" stroke="none" stroke-width="1" fill="none" fill-rule="evenodd">
        <g id="Box_XL-(langer-Content)" transform="translate(-40.000000, -41.000000)" fill="#A9EB5D" fill-rule="nonzero">
            <g id="icons8-work" transform="translate(40.000000, 41.443919)">
                <g id="icons8-search_property" transform="translate(1.000000, 2.592231)">
                    <path d="M2.81835937,0 C1.28320338,0 0.005859375,1.277344 0.005859375,2.8125 L0.005859375,7.8125 C-0.001953125,7.875 -0.001953125,7.9375 0.005859375,8 L0.005859375,40 C0.005859375,40.550781 0.455078375,41.0000599 1.00585938,41.0000599 L24.0058594,41.0000599 C24.3652344,41.003906 24.7011724,40.816406 24.8847654,40.503906 C25.0644534,40.191406 25.0644534,39.808594 24.8847654,39.496094 C24.7011724,39.183594 24.3652344,38.996094 24.0058594,39 L2.00585938,39 L2.00585938,9 L42.0058594,9 L42.0058594,25 C42.0019534,25.359375 42.1894534,25.695313 42.5019534,25.878906 C42.8144534,26.058594 43.1972654,26.058594 43.5097654,25.878906 C43.8222654,25.695313 44.0097654,25.359375 44.0058594,25 L44.0058594,8 C44.0136724,7.9375 44.0136724,7.875 44.0058594,7.8125 L44.0058594,2.8125 C44.0058594,1.277344 42.7285154,0 41.1933594,0 L2.81835937,0 Z M2.81835938,2 L41.1933594,2 C41.6582034,2 42.0058594,2.347656 42.0058594,2.8125 L42.0058594,7 L2.00585938,7 L2.00585938,2.8125 C2.00585938,2.347656 2.35351538,2 2.81835938,2 Z M7.00585938,15 L7.00585938,17 L11.0058594,17 L11.0058594,15 L7.00585938,15 Z M14.0058594,15 L14.0058594,17 L37.0058594,17 L37.0058594,15 L14.0058594,15 Z M7.00585938,20 L7.00585938,22 L11.0058594,22 L11.0058594,20 L7.00585938,20 Z M14.0058594,20 L14.0058594,22 L37.0058594,22 L37.0058594,20 L14.0058594,20 Z M7.00585938,25 L7.00585938,27 L11.0058594,27 L11.0058594,25 L7.00585938,25 Z M14.0058594,25 L14.0058594,27 L28.0058594,27 L28.0058594,25 L14.0058594,25 Z M36.0058594,26 C30.4941404,26 26.0058594,30.488281 26.0058594,36 C26.0058594,41.511719 30.4941404,46 36.0058594,46 C38.4003904,46 40.5957034,45.160156 42.3183594,43.75 L48.2871094,49.71875 L49.7246094,48.28125 L43.7558594,42.3125 C45.1660154,40.589844 46.0058594,38.394531 46.0058594,36 C46.0058594,30.488281 41.5175784,26 36.0058594,26 Z M36.0058594,28 C40.4355474,28 44.0058594,31.570313 44.0058594,36 C44.0058594,40.429688 40.4355474,44 36.0058594,44 C31.5761724,44 28.0058594,40.429688 28.0058594,36 C28.0058594,31.570313 31.5761724,28 36.0058594,28 Z M7.00585938,30 L7.00585938,32 L11.0058594,32 L11.0058594,30 L7.00585938,30 Z M14.0058594,30 L14.0058594,32 L24.0058594,32 L24.0058594,30 L14.0058594,30 Z" id="Shape"></path>
                </g>
            </g>
        </g>
    </g>
</svg>