<?xml version="1.0" encoding="UTF-8"?>
<svg width="42px" height="46px" viewBox="0 0 42 46" version="1.1" xmlns="http://www.w3.org/2000/svg" xmlns:xlink="http://www.w3.org/1999/xlink">
    <title>Icon</title>
    <g id="UNTERNEHMEN" stroke="none" stroke-width="1" fill="none" fill-rule="evenodd">
        <g id="Unternehmen_XL" transform="translate(-194.000000, -1517.000000)" fill="#A9EB5D" fill-rule="nonzero">
            <g id="Teaser-Box_Desktop" transform="translate(150.000000, 1475.000000)">
                <g id="Eintrag" transform="translate(41.000000, 42.000000)">
                    <g id="icons8-company" transform="translate(3.000000, 0.000000)">
                        <path d="M4,0 L4,4 L0,4 L0,46 L42,46 L42,12 L26,12 L26,4 L22,4 L22,0 L4,0 Z M6,2 L20,2 L20,6 L24,6 L24,44 L15,44 L15,37 L11,37 L11,44 L2,44 L2,6 L6,6 L6,2 Z M6,8 L6,10 L8,10 L8,8 L6,8 Z M10,8 L10,10 L12,10 L12,8 L10,8 Z M14,8 L14,10 L16,10 L16,8 L14,8 Z M18,8 L18,10 L20,10 L20,8 L18,8 Z M6,13 L6,17 L8,17 L8,13 L6,13 Z M10,13 L10,17 L12,17 L12,13 L10,13 Z M14,13 L14,17 L16,17 L16,13 L14,13 Z M18,13 L18,17 L20,17 L20,13 L18,13 Z M26,14 L40,14 L40,44 L26,44 L26,14 Z M28,16 L28,18 L30,18 L30,16 L28,16 Z M32,16 L32,18 L34,18 L34,16 L32,16 Z M36,16 L36,18 L38,18 L38,16 L36,16 Z M6,19 L6,23 L8,23 L8,19 L6,19 Z M10,19 L10,23 L12,23 L12,19 L10,19 Z M14,19 L14,23 L16,23 L16,19 L14,19 Z M18,19 L18,23 L20,23 L20,19 L18,19 Z M28,20 L28,22 L30,22 L30,20 L28,20 Z M32,20 L32,22 L34,22 L34,20 L32,20 Z M36,20 L36,22 L38,22 L38,20 L36,20 Z M28,24 L28,26 L30,26 L30,24 L28,24 Z M32,24 L32,26 L34,26 L34,24 L32,24 Z M36,24 L36,26 L38,26 L38,24 L36,24 Z M6,25 L6,29 L8,29 L8,25 L6,25 Z M10,25 L10,29 L12,29 L12,25 L10,25 Z M14,25 L14,29 L16,29 L16,25 L14,25 Z M18,25 L18,29 L20,29 L20,25 L18,25 Z M28,28 L28,30 L30,30 L30,28 L28,28 Z M32,28 L32,30 L34,30 L34,28 L32,28 Z M36,28 L36,30 L38,30 L38,28 L36,28 Z M6,31 L6,35 L8,35 L8,31 L6,31 Z M10,31 L10,35 L12,35 L12,31 L10,31 Z M14,31 L14,35 L16,35 L16,31 L14,31 Z M18,31 L18,35 L20,35 L20,31 L18,31 Z M28,32 L28,34 L30,34 L30,32 L28,32 Z M32,32 L32,34 L34,34 L34,32 L32,32 Z M36,32 L36,34 L38,34 L38,32 L36,32 Z M28,36 L28,38 L30,38 L30,36 L28,36 Z M32,36 L32,38 L34,38 L34,36 L32,36 Z M36,36 L36,38 L38,38 L38,36 L36,36 Z M6,37 L6,42 L8,42 L8,37 L6,37 Z M18,37 L18,42 L20,42 L20,37 L18,37 Z M28,40 L28,42 L30,42 L30,40 L28,40 Z M32,40 L32,42 L34,42 L34,40 L32,40 Z M36,40 L36,42 L38,42 L38,40 L36,40 Z" id="Shape"></path>
                    </g>
                </g>
            </g>
        </g>
    </g>
</svg>