<?xml version="1.0" encoding="UTF-8"?>
<svg width="66px" height="71px" viewBox="0 0 66 71" version="1.1" xmlns="http://www.w3.org/2000/svg" xmlns:xlink="http://www.w3.org/1999/xlink">
    <title>icons8-customer</title>
    <g id="STARTSEITE" stroke="none" stroke-width="1" fill="none" fill-rule="evenodd">
        <g id="Startseite_XL" transform="translate(-542.000000, -7848.000000)" fill="#A9EB5D" fill-rule="nonzero">
            <g id="icons8-customer" transform="translate(542.865343, 7848.883460)">
                <path d="M32.5581395,0 C23.5474205,0 16.2790698,7.2683507 16.2790698,16.2790698 L16.2790698,26.0465116 C16.2790698,31.3181319 18.8608293,36.0492365 22.7906977,39.0188953 L22.7906977,46.3953488 C22.7906977,46.5670426 22.758903,46.7133002 22.3328488,47.1075581 C21.9067947,47.5018177 21.1500735,48.0296144 20.1453488,48.5319767 C18.1422598,49.5367014 15.2489107,50.5668605 12.3110465,51.9912791 C9.37318395,53.4156977 6.32721698,55.2280156 3.96802326,57.8415698 C1.60882953,60.455124 0,63.9589398 0,68.372093 L0,70 L65.1162791,70 L65.1162791,68.372093 C65.1162791,63.9207849 63.5074495,60.4042519 61.1482558,57.7906977 C58.7890621,55.1771435 55.7430967,53.3966202 52.8052326,51.9912791 C49.86737,50.5859379 46.9676607,49.5239826 44.9709302,48.5319767 C43.9725658,48.0359747 43.2031258,47.5526898 42.7834302,47.1584302 C42.3637363,46.7641723 42.3255814,46.5988372 42.3255814,46.3953488 L42.3255814,39.0188953 C46.2554514,36.0492365 48.8372093,31.3181319 48.8372093,26.0465116 L48.8372093,16.2790698 C48.8372093,7.2683507 41.5688586,0 32.5581395,0 Z M32.5581395,3.25581395 C39.8264902,3.25581395 45.5813953,9.01071907 45.5813953,16.2790698 L45.5813953,26.0465116 C45.5813953,30.5359747 43.2349205,34.580306 39.7819767,36.8822674 L39.0697674,37.3909884 L39.0697674,46.3953488 C39.0697674,47.654434 39.7183874,48.7672598 40.5450581,49.5494186 C41.3717305,50.3315774 42.4082481,50.9166065 43.5465116,51.4825581 C45.8230386,52.614463 48.6210037,53.619186 51.380814,54.9418605 C54.1406258,56.2645349 56.7923333,57.8606472 58.7063953,59.9781977 C60.2961491,61.7332849 61.2182053,63.9843758 61.5552326,66.744186 L3.56104651,66.744186 C3.89807372,64.0161705 4.82649023,61.7905156 6.40988372,60.0290698 C8.32394581,57.9051607 10.9756549,56.2836123 13.7354651,54.9418605 C16.495277,53.6001086 19.2996007,52.5635909 21.5697674,51.431686 C22.7016723,50.8657344 23.7509088,50.2679865 24.5712209,49.4985465 C25.391533,48.7291065 26.0465116,47.6480737 26.0465116,46.3953488 L26.0465116,37.3909884 L25.3343023,36.8822674 C21.8813586,34.580306 19.5348837,30.5359747 19.5348837,26.0465116 L19.5348837,16.2790698 C19.5348837,9.01071907 25.2897888,3.25581395 32.5581395,3.25581395 Z" id="Shape"></path>
            </g>
        </g>
    </g>
</svg>