<?xml version="1.0" encoding="UTF-8"?>
<svg width="51px" height="47px" viewBox="0 0 51 47" version="1.1" xmlns="http://www.w3.org/2000/svg" xmlns:xlink="http://www.w3.org/1999/xlink">
    <title>icons8-installing_updates</title>
    <g id="Symbols" stroke="none" stroke-width="1" fill="none" fill-rule="evenodd">
        <g id="Box_XL-(langer-Content)" transform="translate(-803.000000, -40.000000)" fill="#A9EB5D" fill-rule="nonzero">
            <g id="icons8-user_groups" transform="translate(803.917775, 40.834716)">
                <path d="M17.000144,0 C13.699363,0 11.000144,2.699219 11.000144,6 C11.000144,7.984375 11.976707,9.75 13.468894,10.84375 C12.668113,11.246094 11.937644,11.765625 11.312644,12.40625 C10.586082,12.148438 9.81264399,12 9.00014399,12 C5.14467499,12 2.00014399,15.144531 2.00014399,19 C2.00014399,21.449219 3.26967499,23.625 5.18764399,24.875 C2.13295699,26.320313 7.06445715e-05,29.414063 7.06445715e-05,33 L7.06445715e-05,37.5 C-0.00376226399,37.820313 0.148581986,38.121094 0.406393986,38.3125 C0.406393986,38.3125 1.11342499,38.8125 2.46889399,39.21875 C3.82436299,39.625 5.91811299,40 9.00014399,40 C12.082175,40 14.175925,39.625 15.531394,39.21875 C15.707175,39.167969 15.8478,39.117188 16.000144,39.0625 L16.000144,43.5 C15.996238,43.820313 16.148582,44.121094 16.406394,44.3125 C16.406394,44.3125 17.113425,44.8125 18.468894,45.21875 C19.824363,45.625 21.918113,46 25.000144,46 C28.082175,46 30.175925,45.625 31.531394,45.21875 C32.886863,44.8125 33.593894,44.3125 33.593894,44.3125 C33.851707,44.121094 34.00405,43.820313 34.000144,43.5 L34.000144,39.0625 C34.152488,39.117188 34.293113,39.167969 34.468894,39.21875 C35.824363,39.625 37.918113,40 41.000144,40 C44.082175,40 46.175925,39.625 47.531394,39.21875 C48.886863,38.8125 49.593894,38.3125 49.593894,38.3125 C49.851707,38.121094 50.00405,37.820313 50.0002173,37.5 L50.0002173,33 C50.0002173,29.414063 47.867332,26.320313 44.812644,24.875 C46.730613,23.625 48.000144,21.449219 48.000144,19 C48.000144,15.144531 44.855613,12 41.000144,12 C40.12905,12 39.300925,12.175781 38.531394,12.46875 C37.902488,11.808594 37.1603,11.257813 36.343894,10.84375 C37.836082,9.75 38.812644,7.984375 38.812644,6 C38.812644,2.699219 36.113425,0 32.812644,0 C29.511863,0 26.812644,2.699219 26.812644,6 C26.812644,7.984375 27.789207,9.75 29.281394,10.84375 C26.984519,11.976563 25.304832,14.15625 24.906394,16.78125 C24.507957,14.152344 22.832175,11.972656 20.531394,10.84375 C22.023582,9.75 23.000144,7.984375 23.000144,6 C23.000144,2.699219 20.300925,0 17.000144,0 Z M17.000144,2 C19.2228,2 21.000144,3.777344 21.000144,6 C21.000144,8.222656 19.2228,10 17.000144,10 C14.777488,10 13.000144,8.222656 13.000144,6 C13.000144,3.777344 14.777488,2 17.000144,2 Z M32.812644,2 C35.0353,2 36.812644,3.777344 36.812644,6 C36.812644,8.222656 35.0353,10 32.812644,10 C30.589988,10 28.812644,8.222656 28.812644,6 C28.812644,3.777344 30.589988,2 32.812644,2 Z M17.000144,12 C20.371238,12 23.000144,14.628906 23.000144,18 L23.000144,18.3125 C20.125144,19.183594 18.000144,21.847656 18.000144,25 C18.000144,27.449219 19.269675,29.625 21.187644,30.875 C19.933738,31.46875 18.859519,32.339844 18.000144,33.40625 L18.000144,33 C18.000144,29.414063 15.867332,26.320313 12.812644,24.875 C14.730613,23.625 16.000144,21.449219 16.000144,19 C16.000144,16.71875 14.886863,14.6875 13.187644,13.40625 C14.226707,12.519531 15.515769,12 17.000144,12 Z M32.812644,12 C34.339988,12 35.668113,12.535156 36.718894,13.46875 C35.070457,14.75 34.000144,16.761719 34.000144,19 C34.000144,21.449219 35.269675,23.625 37.187644,24.875 C34.132957,26.320313 32.000144,29.414063 32.000144,33 L32.000144,33.40625 C31.140769,32.339844 30.06655,31.46875 28.812644,30.875 C30.730613,29.625 32.000144,27.449219 32.000144,25 C32.000144,21.777344 29.789207,19.054688 26.812644,18.25 L26.812644,18 C26.812644,14.628906 29.44155,12 32.812644,12 Z M9.00014399,14 C9.77748799,14 10.500144,14.1875 11.156394,14.5 C12.836082,15.304688 14.000144,17.003906 14.000144,19 C14.000144,21.773438 11.773582,24 9.00014399,24 C6.22670699,24 4.00014399,21.773438 4.00014399,19 C4.00014399,16.226563 6.22670699,14 9.00014399,14 Z M41.000144,14 C43.773582,14 46.000144,16.226563 46.000144,19 C46.000144,21.773438 43.773582,24 41.000144,24 C38.226707,24 36.000144,21.773438 36.000144,19 C36.000144,17.152344 36.988425,15.554688 38.468894,14.6875 C38.476707,14.683594 38.492332,14.691406 38.500144,14.6875 C38.648582,14.65625 38.7853,14.59375 38.906394,14.5 C38.94155,14.484375 38.964988,14.453125 39.000144,14.4375 C39.019675,14.429688 39.043113,14.417969 39.062644,14.40625 C39.6603,14.152344 40.308738,14 41.000144,14 Z M25.000144,20 C27.773582,20 30.000144,22.226563 30.000144,25 C30.000144,27.773438 27.773582,30 25.000144,30 C22.226707,30 20.000144,27.773438 20.000144,25 C20.000144,22.226563 22.226707,20 25.000144,20 Z M9.00014399,26 C12.855613,26 16.000144,29.144531 16.000144,33 L16.000144,36.84375 C15.851707,36.933594 15.793113,37.035156 14.968894,37.28125 C13.824363,37.625 11.918113,38 9.00014399,38 C6.08217499,38 4.17592499,37.625 3.03139399,37.28125 C2.20717499,37.035156 2.14858199,36.933594 2.00014399,36.84375 L2.00014399,33 C2.00014399,29.144531 5.14467499,26 9.00014399,26 Z M41.000144,26 C44.855613,26 48.000144,29.144531 48.000144,33 L48.000144,36.84375 C47.851707,36.933594 47.793113,37.035156 46.968894,37.28125 C45.824363,37.625 43.918113,38 41.000144,38 C38.082175,38 36.175925,37.625 35.031394,37.28125 C34.207175,37.035156 34.148582,36.933594 34.000144,36.84375 L34.000144,33 C34.000144,29.144531 37.144675,26 41.000144,26 Z M25.000144,32 C28.855613,32 32.000144,35.144531 32.000144,39 L32.000144,42.84375 C31.851707,42.933594 31.793113,43.035156 30.968894,43.28125 C29.824363,43.625 27.918113,44 25.000144,44 C22.082175,44 20.175925,43.625 19.031394,43.28125 C18.207175,43.035156 18.148582,42.933594 18.000144,42.84375 L18.000144,39 C18.000144,35.144531 21.144675,32 25.000144,32 Z" id="Shape"></path>
            </g>
        </g>
    </g>
</svg>