<?xml version="1.0" encoding="UTF-8"?>
<svg width="48px" height="44px" viewBox="0 0 48 44" version="1.1" xmlns="http://www.w3.org/2000/svg" xmlns:xlink="http://www.w3.org/1999/xlink">
    <title>icons8-installing_updates</title>
    <g id="SERVICE" stroke="none" stroke-width="1" fill="none" fill-rule="evenodd">
        <g id="Service_XL" transform="translate(-570.000000, -1633.000000)" fill="#A9EB5D" fill-rule="nonzero">
            <g id="Teaser-Box_Desktop-Copy" transform="translate(151.000000, 1592.000000)">
                <g id="icons8-installing_updates" transform="translate(419.000000, 41.443919)">
                    <path d="M23.9068323,0.00171786287 C23.8641302,0.00941320387 23.8214291,0.020954738 23.7826087,0.032497257 C23.3206519,0.136377958 22.994565,0.548052601 23.0062112,1.01743787 L23.0062112,29.1498041 L16.7639752,22.9631459 C16.6203419,22.8207914 16.4378882,22.7207579 16.2360248,22.6861313 C16.1040378,22.6591991 15.9642862,22.6591991 15.8322981,22.6861313 C15.4596273,22.7515373 15.1607145,23.0208575 15.0559006,23.3786677 C14.9510867,23.7403261 15.0597824,24.1250685 15.3354037,24.378998 L23.1614907,32.1046259 C23.2352487,32.216201 23.3284164,32.3085392 23.4409938,32.3816405 L24,32.9356696 L24.5590062,32.3816405 C24.5900621,32.3624036 24.621118,32.3431667 24.6521739,32.3200817 L24.7142857,32.2585229 C24.7142857,32.2469804 24.7142857,32.239286 24.7142857,32.2277435 C24.7375781,32.2085066 24.7569878,32.1892698 24.7763975,32.1661847 L32.6645963,24.378998 C33.0605595,23.9865612 33.0605595,23.3555836 32.6645963,22.9631459 C32.268634,22.5707091 31.6319881,22.5707091 31.2360248,22.9631459 L24.9937888,29.1498041 L24.9937888,1.01743787 C24.9937888,0.986658475 24.9937888,0.95587908 24.9937888,0.925099686 C24.9937888,0.894320292 24.9937888,0.863540898 24.9937888,0.832761504 C24.9821426,0.759660197 24.9588512,0.686559874 24.931677,0.617305745 C24.9122673,0.594221692 24.8928576,0.574983832 24.8695652,0.555746957 C24.8462738,0.490340991 24.8152179,0.428782202 24.7763975,0.371070592 C24.7569878,0.347986539 24.7375781,0.328748679 24.7142857,0.309511804 C24.6832298,0.286427751 24.6521739,0.267189891 24.621118,0.247953016 C24.4231364,0.0748191701 24.1669257,-0.0136718342 23.9068323,0.00171786287 Z M0,31.9567568 L0,38.182099 C0,41.0313281 2.35190191,43.3698842 5.2173913,43.3698842 L42.7826087,43.3698842 C45.6480981,43.3698842 48,41.0313281 48,38.182099 L48,31.9567568 L45.9130435,31.9567568 L45.9130435,38.182099 C45.9130435,39.9005528 44.5108696,41.2947701 42.7826087,41.2947701 L5.2173913,41.2947701 C3.48913043,41.2947701 2.08695652,39.9005528 2.08695652,38.182099 L2.08695652,31.9567568 L0,31.9567568 Z" id="Shape"></path>
                </g>
            </g>
        </g>
    </g>
</svg>