<?xml version="1.0" encoding="UTF-8"?>
<svg width="59px" height="59px" viewBox="0 0 59 59" version="1.1" xmlns="http://www.w3.org/2000/svg" xmlns:xlink="http://www.w3.org/1999/xlink">
    <title>icons8-joiner copy</title>
    <g id="SERVICE" stroke="none" stroke-width="1" fill="none" fill-rule="evenodd">
        <g id="Service_Serviceleistungen_XL" transform="translate(-151.000000, -5930.000000)" fill="#76B82A" fill-rule="nonzero">
            <g id="Technischer-Kundendienst" transform="translate(150.000000, 5565.000000)">
                <g id="icons8-joiner-copy" transform="translate(1.000000, 365.000000)">
                    <path d="M20.7179087,0 C15.1727438,0 10.6487061,4.51847343 10.6487061,10.0568182 C10.6487061,15.5951629 15.1727438,20.1136364 20.7179087,20.1136364 C26.2630737,20.1136364 30.7871113,15.5951629 30.7871113,10.0568182 C30.7871113,4.51847343 26.2630737,0 20.7179087,0 Z M20.7179087,2.68181818 C24.811927,2.68181818 28.1019906,5.96783552 28.1019906,10.0568182 C28.1019906,14.1458011 24.811927,17.4318182 20.7179087,17.4318182 C16.6238905,17.4318182 13.3338268,14.1458011 13.3338268,10.0568182 C13.3338268,5.96783552 16.6238905,2.68181818 20.7179087,2.68181818 Z M34.8147924,18.7727273 C31.8647389,18.7727273 29.444551,21.1899385 29.444551,24.1363636 C29.444551,27.0827888 31.8647389,29.5 34.8147924,29.5 L34.8147924,32.1818182 C34.8154986,32.1940515 34.8163727,32.2062746 34.8174144,32.218484 L29.7854351,34.7326885 L24.3994616,26.3624819 C24.3766001,26.3273075 24.3520992,26.2932235 24.3260397,26.2603422 C22.6565202,24.1241225 19.9151315,21.4545455 15.3476674,21.4545455 C15.3030309,21.45407 15.2583984,21.455818 15.2139363,21.459783 C15.2112995,21.4598166 15.2087043,21.4597482 15.2060689,21.459783 C9.95726475,21.5298724 5.45845163,25.4551812 4.71469427,30.6471062 C4.64488113,31.1164243 1.80171598,48.18825 1.78864969e-15,59 L2.72445341,59 C4.03479231,51.1355682 7.3212333,31.403525 7.37359315,31.0320932 C7.93612593,27.1005478 11.3642908,24.1363636 15.3476674,24.1363636 C18.9063504,24.1363636 20.6931842,25.9777791 22.1915782,27.8919563 L28.1780346,37.1945132 C28.548961,37.7708933 29.295258,37.9753082 29.9086781,37.668546 L37.6388895,33.8081947 C38.6410343,33.3097614 39.7806532,33.4777492 40.5731169,34.1486596 C40.5893195,34.1647947 40.6059324,34.1805135 40.6229393,34.1958006 C40.8711559,34.4172021 41.0851117,34.6868777 41.2443971,35.0050607 C41.2443963,35.0059336 41.2443963,35.0068066 41.2443971,35.0076795 C41.9155994,36.3466242 41.3842449,37.9339374 40.0434353,38.603515 L29.3029525,43.9671513 C28.9761881,44.1290554 28.4568079,44.25 27.7663506,44.25 C27.5425901,44.25 26.7209378,43.9915612 26.3661017,43.637163 C24.0618278,41.3357232 19.687389,36.6340561 19.687389,36.6340547 C19.3674428,36.2591391 18.8674451,36.0896065 18.385094,36.1924898 C17.9027428,36.2953731 17.5156998,36.6541075 17.3770009,37.1268501 C17.238302,37.5995927 17.3702786,38.110229 17.7207475,38.4568544 C17.7207475,38.4568544 18.9114992,39.7361581 20.3875127,41.2984285 L17.3038194,59 L20.0308951,59 L22.6976603,43.6947805 C23.3059717,44.325351 23.9713245,45.0375883 24.4676382,45.5332916 C25.4553625,46.5198024 26.6475507,46.9318182 27.7663506,46.9318182 C28.7529539,46.9318182 29.6787257,46.7775989 30.5012923,46.368741 C30.5021675,46.3678692 30.5030415,46.3669963 30.5039143,46.3661222 L38.0584396,42.5948153 C38.9388773,44.3671043 40.768199,45.5909091 42.8701544,45.5909091 L48.2403958,45.5909091 L54.9531976,45.5909091 C55.6946425,45.590835 56.2956838,44.990533 56.2957579,44.25 L56.2957579,25.4772727 L57.6383183,25.4772727 C58.1224937,25.4841118 58.5728495,25.2300422 58.8169355,24.8123523 C59.0610215,24.3946624 59.0610215,23.8780649 58.8169355,23.460375 C58.5728495,23.0426851 58.1224937,22.7886155 57.6383183,22.7954545 L56.2957579,22.7954545 C56.2952481,22.2474271 55.9609226,21.7548516 55.4514137,21.5514476 L48.7386119,18.8696294 C48.5802187,18.8059861 48.4111259,18.7727273 48.2403958,18.7727273 L36.1573527,18.7727273 L34.8147924,18.7727273 Z M34.8147924,21.4545455 L34.8147924,26.8181818 C33.3156009,26.8181818 32.1296717,25.6337112 32.1296717,24.1363636 C32.1296717,22.639016 33.3156009,21.4545455 34.8147924,21.4545455 Z M37.4999131,21.4545455 L46.8978355,21.4545455 L46.8978355,26.8181818 L44.2127148,26.8181818 C42.0042433,26.8181818 40.1850338,28.6351539 40.1850338,30.8409091 L40.1850338,31.0425698 C39.3170631,30.8168988 38.3969206,30.786798 37.4999131,31.0163791 L37.4999131,28.3843221 C37.5238765,28.2395154 37.5238765,28.0917618 37.4999131,27.9469551 L37.4999131,21.4545455 Z M49.5829562,22.0935718 L53.6106372,23.7042342 L53.6106372,23.9111325 C53.5866738,24.0559392 53.5866738,24.2036928 53.6106372,24.3484995 L53.6106372,42.9090909 L49.5829562,42.9090909 L49.5829562,28.1590909 L49.5829562,22.0935718 Z M44.2127148,29.5 L46.8978355,29.5 L46.8978355,42.9090909 L42.8701544,42.9090909 C41.7966902,42.9090909 40.8873808,42.2924605 40.4551193,41.3979494 L41.2443971,41.0024858 C43.882939,39.6848388 44.9674807,36.4410845 43.6463221,33.805576 C43.4371687,33.3877822 43.1662038,33.023476 42.8701544,32.6872779 L42.8701544,30.8409091 C42.8701544,30.0832552 43.4541279,29.5 44.2127148,29.5 Z" id="Shape"></path>
                </g>
            </g>
        </g>
    </g>
</svg>