<?xml version="1.0" encoding="UTF-8"?>
<svg width="51px" height="49px" viewBox="0 0 51 49" version="1.1" xmlns="http://www.w3.org/2000/svg" xmlns:xlink="http://www.w3.org/1999/xlink">
    <title>icons8-communication</title>
    <g id="Symbols" stroke="none" stroke-width="1" fill="none" fill-rule="evenodd">
        <g id="Box_XL" transform="translate(-40.000000, -41.000000)" fill="#A9EB5D" fill-rule="nonzero">
            <g id="icons8-communication" transform="translate(40.000000, 41.443919)">
                <path d="M19.1437449,0 C8.68969213,0 0,7.58416199 0,17.1218193 C0,21.7012568 2.04989761,25.8593518 5.301607,28.9279152 L5.19932519,29.4301217 C4.46630558,31.5751371 2.66358845,32.7880919 1.59389204,33.1753866 C0.971677168,33.3966977 0.456006663,33.7329206 0.170469679,34.3202457 C-0.110804746,34.9033151 0.059664933,35.7119524 0.485839129,36.133295 C1.4830862,37.1334501 2.77865576,37.0355633 3.72476302,37.0440747 C7.28331674,37.0866351 11.4768708,35.2225141 14.016869,33.9542317 L14.0467015,33.9414635 L14.9160969,33.439257 L14.5836815,33.3371134 L14.6220369,33.3456259 C16.0369353,33.6733363 17.5200215,33.7754799 18.9775367,33.7754799 C28.1701149,33.7754799 36.079908,28.2895183 37.8272217,20.3946698 L37.8272217,20.3904141 C38.0616177,19.3391861 38.185208,18.2453988 38.185208,17.1218193 C38.185208,7.59267341 29.5977977,0 19.1437449,0 Z M19.1437449,2.17906322 C28.5451482,2.17906322 36.0031961,8.90351613 36.0031961,17.1218193 C36.0031961,18.0879277 35.8966528,19.0242439 35.6963507,19.9222555 C34.2047415,26.6637323 27.304981,31.5964167 18.9775367,31.5964167 C17.6308262,31.5964167 16.3054253,31.4942731 15.1206605,31.2218902 L14.6433454,31.081443 L13.0281449,32.0092468 C10.6159995,33.2136902 6.45653935,34.8990594 3.75033293,34.8650115 C3.3795611,34.8650115 3.34546717,34.7926601 3.08550118,34.7628679 C4.63677526,34.0053035 6.42670688,32.6306208 7.27905527,30.1025664 L7.29610224,30.0472389 L7.6881825,28.2086543 L7.20660593,27.7830561 C4.08274935,25.0549713 2.18201188,21.2714028 2.18201188,17.1218193 C2.18201188,8.91202864 9.74234267,2.17906322 19.1437449,2.17906322 Z M9.81905348,9.80578449 L9.81905348,11.9848477 L28.3661545,11.9848477 L28.3661545,9.80578449 L9.81905348,9.80578449 Z M9.81905348,15.2534425 L9.81905348,17.4325058 L28.3661545,17.4325058 L28.3661545,15.2534425 L9.81905348,15.2534425 Z M40.1328238,19.8243687 C40.0774214,20.1733587 40.039066,20.5223499 39.9623541,20.8670842 C39.8771193,21.2416107 39.7663145,21.6076247 39.6555087,21.9778954 C44.6801027,23.9143679 47.9872145,27.8171039 47.9872145,32.1539507 C47.9872145,35.2650745 46.3677526,38.1719099 43.4186271,40.3467174 L42.8262447,40.7850839 L43.0094999,41.5000891 C43.5976208,43.7515037 45.6603039,44.9133868 47.0879867,45.6879762 C44.8250025,45.994407 39.9069517,45.483689 37.4351414,42.5640842 L37.0217527,42.0703902 L36.3910149,42.1980703 C35.3980293,42.3938449 34.2473584,42.4917328 32.866554,42.4917328 C26.0818608,42.4917328 20.5714287,39.8657916 18.4277722,35.9375192 C17.5413299,35.9204953 16.7145525,35.8609121 15.9389149,35.7672799 C17.9632426,41.1213069 24.4709229,44.670796 32.866554,44.670796 C34.1237682,44.670796 35.2190356,44.5941889 36.2034982,44.4452292 C38.6113822,46.8796514 42.5364463,47.9351351 45.7157063,47.9351351 C45.9245314,47.9351351 46.1333565,47.9308794 46.3336586,47.9223669 C48.1789926,47.8372473 49.3808044,47.411649 49.9135219,46.6583403 C50.1479179,46.3178617 50.2288913,45.9177987 50.1351325,45.5262483 C49.9518773,44.7474043 49.2359046,44.3643652 48.242919,43.8323677 C47.2669804,43.3046258 45.9841963,42.6109003 45.3832899,41.5766962 C48.4389597,39.0571544 50.1692264,35.669392 50.1692264,32.1539507 C50.1692264,26.8084363 46.1674504,22.0374798 40.1328238,19.8243687 Z M9.81905348,20.7011006 L9.81905348,22.8801638 L22.9111248,22.8801638 L22.9111248,20.7011006 L9.81905348,20.7011006 Z M37.111249,27.2382903 C36.565746,28.0043672 35.9648407,28.7363962 35.3042704,29.4173535 L40.3672199,29.4173535 L40.3672199,27.2382903 L37.111249,27.2382903 Z M31.1916897,32.6859483 C29.6872951,33.5882167 28.0380006,34.3245014 26.2864244,34.8650115 L40.3672199,34.8650115 L40.3672199,32.6859483 L31.1916897,32.6859483 Z" id="Shape"></path>
            </g>
        </g>
    </g>
</svg>